<svg width="21" height="24" viewBox="0 0 21 24" fill="none" xmlns="http://www.w3.org/2000/svg">
<g clip-path="url(#clip0_344_998)">
<path d="M18.3206 7.39502V16.5898L10.3706 21.1899H10.3256H10.2906L2.43555 16.615V7.41992L10.3056 2.83984L18.3206 7.39502Z" fill="white"/>
<path d="M13.0549 15.6899H17.5549L16.8149 14.6499L13.6899 10.2349L10.3649 5.53491L7.03493 10.2349L3.90993 14.6499L3.16992 15.6899H7.66992L6.75492 14.3699H5.71493L6.92493 12.6599L9.06992 15.6899H11.6249L13.7699 12.6599L14.9799 14.3699H13.9399L13.0549 15.6899ZM10.9749 14.3699H9.78492L7.78493 11.5149L10.3999 7.81982L13.0099 11.5149L10.9749 14.3699Z" fill="#041A3A"/>
<path d="M19.7446 12.355V17.415L15.7446 19.73L16.2446 20.5999L20.7446 18V12.355H19.7446ZM4.97461 3.09497L-0.0253906 5.98999V11.345H0.97461V6.56983L5.44461 3.96484L4.97461 3.09497ZM1.00961 17.415V12.355H0.00961305V17.9949L4.85961 20.8198L5.35961 19.9448L1.00961 17.415ZM14.8696 20.2349L10.3696 22.8499L6.25461 20.4548L5.75461 21.3298L10.4096 24L15.4096 21.1099L14.8696 20.2349ZM16.1146 3.32983L15.6146 4.20483L19.7496 6.56983V11.345H20.7496V5.98486L16.1146 3.32983ZM10.2846 0L5.84461 2.58496L6.34462 3.45996L10.2846 1.16504L14.7246 3.70483L15.2246 2.82983L10.2846 0Z" fill="white"/>
<path d="M10.7952 0.889893H9.78516V3.33489H10.7952V0.889893Z" fill="white"/>
<path d="M9.8608 20.8463L9.82812 23.186L10.838 23.2001L10.8707 20.8604L9.8608 20.8463Z" fill="white"/>
<path d="M1.06317 6.29734L0.556641 7.17114L2.42973 8.25693L2.93625 7.38313L1.06317 6.29734Z" fill="white"/>
<path d="M17.9661 16.0188L17.4824 16.9055L20.0064 18.2822L20.49 17.3955L17.9661 16.0188Z" fill="white"/>
<path d="M19.4488 6.16656L17.1953 7.47339L17.702 8.34711L19.9555 7.04028L19.4488 6.16656Z" fill="white"/>
</g>
<defs>
<clipPath id="clip0_344_998">
<rect width="20.75" height="24" fill="white"/>
</clipPath>
</defs>
</svg>
