<svg width="126" height="41" viewBox="0 0 126 41" fill="none" xmlns="http://www.w3.org/2000/svg">
<path d="M3.00252 14.0923L17.4976 5.63733L17.4727 11.2309L2.97761 19.6859L3.00252 14.0923Z" fill="#34D399" stroke="#0C0C0C" stroke-width="1.25" stroke-linejoin="round"/>
<path d="M12.5664 30.8296L26.9868 39.1552L31.8185 36.3368L17.3981 28.0112L12.5664 30.8296Z" fill="#34D399" stroke="#0C0C0C" stroke-width="1.25" stroke-linejoin="round"/>
<path d="M12.6164 19.6424L12.5666 30.8295L17.3982 28.0112L17.4481 16.8241L12.6164 19.6424Z" fill="#34D399" stroke="#0C0C0C" stroke-width="1.25" stroke-linejoin="round"/>
<path d="M17.4474 16.8233L17.3976 28.0103L31.818 36.3359L31.8678 25.1489L17.4474 16.8233Z" fill="#34D399" stroke="#0C0C0C" stroke-width="1.25" stroke-linejoin="round"/>
<path d="M22.2305 25.1929L27.0373 27.9681L36.7006 22.3314L31.8939 19.5562L22.2305 25.1929Z" fill="#34D399" stroke="#0C0C0C" stroke-width="1.25" stroke-linejoin="round"/>
<path d="M31.9675 2.77519L31.8928 19.5558L36.6996 22.331L36.7743 5.55039L31.9675 2.77519Z" fill="#34D399" stroke="#0C0C0C" stroke-width="1.25" stroke-linejoin="round"/>
<path d="M31.8931 19.5558L22.2297 25.1925L22.3044 8.41188L31.9678 2.7752L31.8931 19.5558Z" fill="#34D399" stroke="#0C0C0C" stroke-width="1.25" stroke-linejoin="round"/>
<path d="M27.1112 11.1869L27.0863 16.7804L17.4727 11.23L17.4976 5.6365L27.1112 11.1869Z" fill="#34D399" stroke="#0C0C0C" stroke-width="1.25" stroke-linejoin="round"/>
<path d="M17.4487 16.8236L12.617 19.642L12.5921 25.2355L2.97852 19.6851L17.4736 11.2301L27.0872 16.7805L22.2555 19.5988L17.4487 16.8236Z" fill="#34D399" stroke="#0C0C0C" stroke-width="1.25" stroke-linejoin="round"/>
<path d="M53.6456 19.068H51.9388V16.6786H53.6456V13.7871H56.4768V16.6786H58.8261V19.068H56.4768V23.586C56.4768 23.9474 56.5504 24.2084 56.6977 24.3691C56.8583 24.5297 57.1193 24.61 57.4808 24.61H58.9466V26.9995H56.5973C54.6295 26.9995 53.6456 26.0156 53.6456 24.0478V19.068ZM59.5818 21.8591C59.5818 20.7882 59.796 19.8578 60.2243 19.068C60.6661 18.2649 61.2752 17.6491 62.0516 17.2207C62.8414 16.779 63.7517 16.5581 64.7824 16.5581C65.8266 16.5581 66.7435 16.7656 67.5333 17.1805C68.3365 17.5821 68.959 18.1578 69.4007 18.9074C69.8559 19.6437 70.0901 20.5138 70.1035 21.5178C70.1035 21.8792 70.0768 22.2005 70.0232 22.4816H62.5335V22.5619C62.6004 23.3115 62.8414 23.9005 63.2564 24.3289C63.6713 24.7573 64.2403 24.9715 64.9631 24.9715C65.5387 24.9715 66.014 24.851 66.3888 24.61C66.777 24.3557 67.0313 23.9876 67.1518 23.5056H69.9429C69.8358 24.1884 69.5748 24.8041 69.1598 25.353C68.7448 25.9018 68.196 26.3369 67.5132 26.6582C66.8305 26.966 66.0474 27.12 65.1639 27.12C64.0127 27.12 63.0154 26.9058 62.172 26.4774C61.3421 26.0491 60.6995 25.44 60.2444 24.6502C59.8026 23.847 59.5818 22.9166 59.5818 21.8591ZM67.2723 20.6343C67.1786 20.0051 66.9175 19.5232 66.4892 19.1885C66.0742 18.8405 65.5454 18.6664 64.9029 18.6664C64.2871 18.6664 63.765 18.8472 63.3367 19.2086C62.9217 19.5566 62.674 20.0319 62.5937 20.6343H67.2723ZM77.9357 16.6786V19.2488H76.8112C76.008 19.2488 75.419 19.4897 75.0442 19.9716C74.6694 20.4535 74.482 21.1095 74.482 21.9394V26.9995H71.6508V16.6786H74.221L74.482 18.2247C74.7899 17.716 75.1714 17.3345 75.6265 17.0801C76.0817 16.8124 76.6908 16.6786 77.4538 16.6786H77.9357ZM89.0664 24.61V26.9995H87.6207C86.3222 26.9995 85.6863 26.4373 85.7131 25.3128C85.3383 25.9018 84.8765 26.3503 84.3276 26.6582C83.7788 26.966 83.1161 27.12 82.3397 27.12C81.1885 27.12 80.2581 26.859 79.5487 26.3369C78.8526 25.8014 78.5045 25.0518 78.5045 24.088C78.5045 22.9903 78.9061 22.1469 79.7093 21.5579C80.5259 20.9555 81.7039 20.6543 83.2433 20.6543H85.2914V20.1523C85.2914 19.6838 85.1174 19.3157 84.7694 19.048C84.4213 18.7668 83.9528 18.6263 83.3638 18.6263C82.8417 18.6263 82.4134 18.7401 82.0787 18.9676C81.744 19.1952 81.5432 19.5031 81.4763 19.8913H78.7455C78.8392 18.8338 79.3077 18.0172 80.151 17.4416C80.9944 16.8526 82.1122 16.5581 83.5044 16.5581C84.9635 16.5581 86.0879 16.8794 86.8777 17.5219C87.6809 18.1645 88.0825 19.0948 88.0825 20.313V23.9474C88.0825 24.2017 88.1361 24.3758 88.2432 24.4695C88.3503 24.5632 88.5176 24.61 88.7452 24.61H89.0664ZM85.2914 22.5418H83.2232C82.6342 22.5418 82.1724 22.6623 81.8377 22.9033C81.5165 23.1308 81.3558 23.4588 81.3558 23.8872C81.3558 24.2486 81.4897 24.5364 81.7574 24.7506C82.0385 24.9648 82.4134 25.0719 82.8819 25.0719C83.6181 25.0719 84.2005 24.8644 84.6288 24.4494C85.0572 24.021 85.2781 23.4521 85.2914 22.7426V22.5418ZM100.483 16.6786V26.6983C100.483 28.0503 100.034 29.128 99.1373 29.9311C98.2404 30.7343 96.8482 31.1359 94.9608 31.1359C93.5016 31.1359 92.3236 30.8147 91.4267 30.1721C90.5298 29.5296 90.0479 28.6193 89.981 27.4413H92.8323C92.9662 27.9366 93.2272 28.3181 93.6154 28.5858C94.017 28.8535 94.5391 28.9874 95.1816 28.9874C95.9848 28.9874 96.6073 28.7866 97.049 28.385C97.4908 27.9834 97.7117 27.3877 97.7117 26.5979V25.5136C96.962 26.4641 95.8978 26.9393 94.519 26.9393C93.6087 26.9393 92.7921 26.7251 92.0693 26.2967C91.3464 25.8684 90.7775 25.266 90.3625 24.4896C89.9609 23.6998 89.7601 22.7828 89.7601 21.7386C89.7601 20.7079 89.9609 19.7976 90.3625 19.0078C90.7775 18.218 91.3464 17.6089 92.0693 17.1805C92.8055 16.7522 93.6288 16.538 94.5391 16.538C95.8911 16.538 96.962 17.0601 97.7518 18.1042L97.9928 16.6786H100.483ZM95.1816 24.6703C95.9447 24.6703 96.5537 24.4025 97.0089 23.8671C97.464 23.3316 97.6916 22.6355 97.6916 21.7788C97.6916 20.9087 97.464 20.1992 97.0089 19.6503C96.5537 19.1015 95.9447 18.8271 95.1816 18.8271C94.4186 18.8271 93.8028 19.1015 93.3343 19.6503C92.8792 20.1858 92.6516 20.8886 92.6516 21.7587C92.6516 22.6288 92.8792 23.3316 93.3343 23.8671C93.8028 24.4025 94.4186 24.6703 95.1816 24.6703ZM107.497 27.12C106.412 27.12 105.455 26.9058 104.625 26.4774C103.809 26.0357 103.173 25.4132 102.718 24.61C102.276 23.8068 102.055 22.8832 102.055 21.839C102.055 20.7949 102.276 19.8712 102.718 19.068C103.173 18.2649 103.809 17.6491 104.625 17.2207C105.455 16.779 106.412 16.5581 107.497 16.5581C108.581 16.5581 109.531 16.779 110.348 17.2207C111.178 17.6491 111.814 18.2649 112.255 19.068C112.711 19.8712 112.938 20.7949 112.938 21.839C112.938 22.8966 112.711 23.8269 112.255 24.6301C111.814 25.4199 111.178 26.0357 110.348 26.4774C109.531 26.9058 108.581 27.12 107.497 27.12ZM107.497 24.8108C108.286 24.8108 108.909 24.5364 109.364 23.9876C109.833 23.4387 110.067 22.7225 110.067 21.839C110.067 20.9555 109.833 20.2394 109.364 19.6905C108.909 19.1417 108.286 18.8672 107.497 18.8672C106.72 18.8672 106.098 19.1417 105.629 19.6905C105.174 20.2394 104.946 20.9555 104.946 21.839C104.946 22.7225 105.174 23.4387 105.629 23.9876C106.098 24.5364 106.72 24.8108 107.497 24.8108ZM120.42 16.5581C121.625 16.5581 122.615 16.9329 123.392 17.6825C124.168 18.4322 124.556 19.6704 124.556 21.3973V26.9995H121.725V21.5579C121.725 19.7775 121.029 18.8873 119.637 18.8873C118.901 18.8873 118.332 19.135 117.93 19.6303C117.529 20.1256 117.328 20.8217 117.328 21.7186V26.9995H114.497V16.6786H116.966L117.227 17.9637C117.589 17.5219 118.024 17.1805 118.533 16.9396C119.041 16.6852 119.67 16.5581 120.42 16.5581Z" fill="white"/>
</svg>
