<?xml version="1.0" encoding="utf-8"?>
<!-- Generator: Adobe Illustrator 25.2.1, SVG Export Plug-In . SVG Version: 6.00 Build 0)  -->
<svg version="1.1" id="Layer_1" xmlns="http://www.w3.org/2000/svg" xmlns:xlink="http://www.w3.org/1999/xlink" x="0px" y="0px"
	 viewBox="0 0 24 24" style="enable-background:new 0 0 24 24;" xml:space="preserve">
<style type="text/css">
	.st0{fill:#58B88E;}
</style>
<g>
	<path class="st0" d="M9.9,2.2L1,7.5l0,2.8l9-5.2L9.9,2.2z"/>
	<path class="st0" d="M7.9,18.6l8.9,5.1l2.4-1.4l-8.9-5.2L7.9,18.6z"/>
	<path class="st0" d="M16.9,17.1c-0.1,0-0.2,0-0.2-0.1l-3.3-1.9c0,0,0,0,0,0c0,0-0.1,0-0.1-0.1c0,0,0,0,0,0c0,0,0,0,0,0
		c0,0,0-0.1,0-0.1c0,0,0-0.1,0-0.1l0-3.5v0l-2.4-1.4l0,6.6l8.9,5.1l0-6L17.1,17C17,17.1,17,17.1,16.9,17.1z"/>
	<path class="st0" d="M9.9,16.4L9.9,16.4l0-6.6v0l-2.4,1.4l0,0l0,3.5v0l0,3L9.9,16.4L9.9,16.4z"/>
	<path class="st0" d="M17.8,12.8l-0.4,0.3l-0.4,0.3l-2.4,1.4l2.4,1.4l2.8-1.7l2.8-1.7l-2.4-1.4L17.8,12.8z"/>
	<path class="st0" d="M20.7,0.3l0,10.4v0L23,12l0-10.4L20.7,0.3z"/>
	<path class="st0" d="M14.1,10.7L14.1,10.7L14.1,10.7L14.1,10.7z"/>
	<path class="st0" d="M17.4,5.2l0,3.8c0,0.2-0.1,0.3-0.2,0.4h0l-2.6,1.5l-0.4,0.3l0,2.8l1.9-1.1h0l0.4-0.3h0l0.4-0.3l2.8-1.7l0-10.4
		l-5.2,3l2.6,1.5C17.3,4.9,17.4,5.1,17.4,5.2z"/>
	<path class="st0" d="M13.6,6.6l0.4,0.3l2.4,1.4l0-2.8l-2.4-1.4l-0.4-0.3l-0.5-0.3l-2.4-1.4h0l0,1.5l0,1.3h0L13.6,6.6z"/>
	<path class="st0" d="M10.1,8.7C10.1,8.6,10.2,8.6,10.1,8.7c0.1,0,0.1,0,0.1,0c0.1,0,0.1,0,0.2,0c0,0,0,0,0.1,0c0,0,0,0,0.1,0h0l0,0
		l2.6,1.5v0l0.4,0.3l0,0v0l0.5-0.3L16,9l-1.9-1.1v0l-0.4-0.3l-0.5-0.3l-2.8-1.6l-9,5.2l5.2,3h0l0-3c0,0,0,0,0-0.1c0,0,0-0.1,0-0.1
		c0,0,0,0,0-0.1c0,0,0-0.1,0.1-0.1c0,0,0.1-0.1,0.1-0.1L10.1,8.7L10.1,8.7z"/>
</g>
</svg>
